<?xml version="1.0" encoding="UTF-8" standalone="no"?>
<svg
   width="238"
   height="252"
   version="1.1"
   id="svg3811"
   sodipodi:docname="bloch.svg"
   inkscape:version="1.1.2 (0a00cf5339, 2022-02-04)"
   xmlns:inkscape="http://www.inkscape.org/namespaces/inkscape"
   xmlns:sodipodi="http://sodipodi.sourceforge.net/DTD/sodipodi-0.dtd"
   xmlns="http://www.w3.org/2000/svg"
   xmlns:svg="http://www.w3.org/2000/svg">
  <sodipodi:namedview
     id="namedview3813"
     pagecolor="#ffffff"
     bordercolor="#666666"
     borderopacity="1.0"
     inkscape:pageshadow="2"
     inkscape:pageopacity="1"
     inkscape:pagecheckerboard="0"
     showgrid="false"
     inkscape:zoom="3.4642857"
     inkscape:cx="-111.13402"
     inkscape:cy="124.12371"
     inkscape:window-width="3832"
     inkscape:window-height="2016"
     inkscape:window-x="0"
     inkscape:window-y="68"
     inkscape:window-maximized="1"
     inkscape:current-layer="svg3811" />
  <defs
     id="defs3755">
    <marker
       style="overflow:visible"
       id="DotM"
       refX="0.0"
       refY="0.0"
       orient="auto"
       inkscape:stockid="DotM"
       inkscape:isstock="true">
      <path
         transform="scale(0.4) translate(7.4, 1)"
         style="fill-rule:evenodd;fill:context-stroke;stroke:context-stroke;stroke-width:1.0pt"
         d="M -2.5,-1.0 C -2.5,1.7600000 -4.7400000,4.0 -7.5,4.0 C -10.260000,4.0 -12.5,1.7600000 -12.5,-1.0 C -12.5,-3.7600000 -10.260000,-6.0 -7.5,-6.0 C -4.7400000,-6.0 -2.5,-3.7600000 -2.5,-1.0 z "
         id="path3984" />
    </marker>
    <marker
       style="overflow:visible"
       id="marker4326"
       refX="0.0"
       refY="0.0"
       orient="auto"
       inkscape:stockid="DotL"
       inkscape:isstock="true">
      <path
         transform="scale(0.8) translate(7.4, 1)"
         style="fill-rule:evenodd;fill:context-stroke;stroke:context-stroke;stroke-width:1.0pt"
         d="M -2.5,-1.0 C -2.5,1.7600000 -4.7400000,4.0 -7.5,4.0 C -10.260000,4.0 -12.5,1.7600000 -12.5,-1.0 C -12.5,-3.7600000 -10.260000,-6.0 -7.5,-6.0 C -4.7400000,-6.0 -2.5,-3.7600000 -2.5,-1.0 z "
         id="path4324" />
    </marker>
    <marker
       style="overflow:visible"
       id="DotL"
       refX="0.0"
       refY="0.0"
       orient="auto"
       inkscape:stockid="DotL"
       inkscape:isstock="true">
      <path
         transform="scale(0.8) translate(7.4, 1)"
         style="fill-rule:evenodd;fill:context-stroke;stroke:context-stroke;stroke-width:1.0pt"
         d="M -2.5,-1.0 C -2.5,1.7600000 -4.7400000,4.0 -7.5,4.0 C -10.260000,4.0 -12.5,1.7600000 -12.5,-1.0 C -12.5,-3.7600000 -10.260000,-6.0 -7.5,-6.0 C -4.7400000,-6.0 -2.5,-3.7600000 -2.5,-1.0 z "
         id="path3981" />
    </marker>
    <marker
       style="overflow:visible;"
       id="marker4236"
       refX="0.0"
       refY="0.0"
       orient="auto"
       inkscape:stockid="Arrow2Lend"
       inkscape:isstock="true">
      <path
         transform="scale(1.1) rotate(180) translate(1,0)"
         d="M 8.7185878,4.0337352 L -2.2072895,0.016013256 L 8.7185884,-4.0017078 C 6.9730900,-1.6296469 6.9831476,1.6157441 8.7185878,4.0337352 z "
         style="stroke:context-stroke;fill-rule:evenodd;fill:context-stroke;stroke-width:0.62500000;stroke-linejoin:round;"
         id="path4234" />
    </marker>
    <marker
       style="overflow:visible;"
       id="marker4226"
       refX="0.0"
       refY="0.0"
       orient="auto"
       inkscape:stockid="Arrow2Lend"
       inkscape:isstock="true">
      <path
         transform="scale(1.1) rotate(180) translate(1,0)"
         d="M 8.7185878,4.0337352 L -2.2072895,0.016013256 L 8.7185884,-4.0017078 C 6.9730900,-1.6296469 6.9831476,1.6157441 8.7185878,4.0337352 z "
         style="stroke:context-stroke;fill-rule:evenodd;fill:context-stroke;stroke-width:0.62500000;stroke-linejoin:round;"
         id="path4224" />
    </marker>
    <marker
       style="overflow:visible;"
       id="marker4216"
       refX="0.0"
       refY="0.0"
       orient="auto"
       inkscape:stockid="Arrow2Lend"
       inkscape:isstock="true">
      <path
         transform="scale(1.1) rotate(180) translate(1,0)"
         d="M 8.7185878,4.0337352 L -2.2072895,0.016013256 L 8.7185884,-4.0017078 C 6.9730900,-1.6296469 6.9831476,1.6157441 8.7185878,4.0337352 z "
         style="stroke:context-stroke;fill-rule:evenodd;fill:context-stroke;stroke-width:0.62500000;stroke-linejoin:round;"
         id="path4214" />
    </marker>
    <marker
       style="overflow:visible;"
       id="Arrow2Lend"
       refX="0.0"
       refY="0.0"
       orient="auto"
       inkscape:stockid="Arrow2Lend"
       inkscape:isstock="true">
      <path
         transform="scale(1.1) rotate(180) translate(1,0)"
         d="M 8.7185878,4.0337352 L -2.2072895,0.016013256 L 8.7185884,-4.0017078 C 6.9730900,-1.6296469 6.9831476,1.6157441 8.7185878,4.0337352 z "
         style="stroke:context-stroke;fill-rule:evenodd;fill:context-stroke;stroke-width:0.62500000;stroke-linejoin:round;"
         id="path3941" />
    </marker>
    <marker
       style="overflow:visible;"
       id="marker4198"
       refX="0.0"
       refY="0.0"
       orient="auto"
       inkscape:stockid="Arrow1Lend"
       inkscape:isstock="true">
      <path
         transform="scale(0.8) rotate(180) translate(12.5,0)"
         style="fill-rule:evenodd;fill:context-stroke;stroke:context-stroke;stroke-width:1.0pt;"
         d="M 0.0,0.0 L 5.0,-5.0 L -12.5,0.0 L 5.0,5.0 L 0.0,0.0 z "
         id="path4196" />
    </marker>
    <marker
       style="overflow:visible;"
       id="Arrow1Lend"
       refX="0.0"
       refY="0.0"
       orient="auto"
       inkscape:stockid="Arrow1Lend"
       inkscape:isstock="true">
      <path
         transform="scale(0.8) rotate(180) translate(12.5,0)"
         style="fill-rule:evenodd;fill:context-stroke;stroke:context-stroke;stroke-width:1.0pt;"
         d="M 0.0,0.0 L 5.0,-5.0 L -12.5,0.0 L 5.0,5.0 L 0.0,0.0 z "
         id="path3923" />
    </marker>
    <marker
       style="overflow:visible"
       id="Arrow1Lstart"
       refX="0.0"
       refY="0.0"
       orient="auto"
       inkscape:stockid="Arrow1Lstart"
       inkscape:isstock="true">
      <path
         transform="scale(0.8) translate(12.5,0)"
         style="fill-rule:evenodd;fill:context-stroke;stroke:context-stroke;stroke-width:1.0pt"
         d="M 0.0,0.0 L 5.0,-5.0 L -12.5,0.0 L 5.0,5.0 L 0.0,0.0 z "
         id="path3920" />
    </marker>
    <marker
       id="dot"
       overflow="visible">
      <circle
         r="2.5"
         id="circle3749" />
    </marker>
    <marker
       id="arrow"
       orient="auto"
       overflow="visible">
      <path
         d="M-4 4.5q3-4.5 0-9L8 0z"
         id="path3752" />
    </marker>
  </defs>
  <g
     fill="none"
     stroke="#000"
     id="g3761"
     style="stroke:#0adbc2;stroke-opacity:1">
    <circle
       cx="103"
       cy="133"
       r="100"
       stroke-width="2"
       id="circle3757"
       style="stroke:#0adbc2;stroke-opacity:1" />
    <ellipse
       cx="103"
       cy="133"
       rx="100"
       ry="25"
       stroke-dasharray="4.9,4.9"
       stroke-dashoffset="4"
       stroke-linecap="round"
       stroke-width="1.6"
       id="ellipse3759"
       style="stroke:#0adbc2;stroke-opacity:1" />
  </g>
  <g
     stroke="#000"
     marker-end="url(#arrow)"
     id="g3769"
     style="stroke:#fc04a2;stroke-opacity:1;stroke-width:1;stroke-miterlimit:4;stroke-dasharray:none">
    <path
       d="m103 133-35 35"
       id="path3763"
       style="stroke:#fc04a2;stroke-opacity:1;stroke-width:1;stroke-miterlimit:4;stroke-dasharray:none;marker-end:url(#marker4236)" />
    <path
       d="M103 133V9"
       id="path3765"
       style="stroke:#fc04a2;stroke-opacity:1;fill-opacity:1;stroke-width:1;stroke-miterlimit:4;stroke-dasharray:none;marker-end:url(#marker4216)" />
    <path
       d="M103 133h124"
       id="path3767"
       style="stroke:#fc04a2;stroke-opacity:1;fill:none;fill-opacity:1;stroke-width:1;stroke-miterlimit:4;stroke-dasharray:none;marker-end:url(#marker4226)" />
  </g>
  <path
     d="m103 133 35 15V58"
     stroke="#000"
     stroke-dasharray="2,2"
     fill="none"
     id="path3771"
     style="stroke:#fc04a2;stroke-opacity:1" />
  <path
     d="m103 133 35-75"
     stroke="#000"
     marker-end="url(#dot)"
     id="path3773"
     style="stroke:#fc04a2;stroke-opacity:1;marker-end:url(#DotM)" />
  <g
     fill="none"
     stroke="#000"
     id="g3779"
     style="stroke:#fc04a2;stroke-opacity:1">
    <path
       d="M103 88a24 45 0 0 1 16 10"
       id="path3775"
       style="stroke:#fc04a2;stroke-opacity:1" />
    <path
       d="M118.5 140a32 16 0 0 1-22.5 0"
       id="path3777"
       style="stroke:#fc04a2;stroke-opacity:1" />
  </g>
  <g
     font-size="12"
     font-family="Bitstream Vera Sans"
     font-weight="400"
     font-style="italic"
     id="g3791"
     style="fill:#fc04a2;fill-opacity:1">
    <text
       x="70"
       y="183"
       id="text3781"
       style="fill:#fc04a2;fill-opacity:1">x</text>
    <text
       x="230"
       y="147"
       id="text3783"
       style="fill:#fc04a2;fill-opacity:1">y</text>
    <text
       x="110"
       y="16"
       id="text3785"
       style="fill:#fc04a2;fill-opacity:1">z</text>
    <text
       x="106"
       y="151"
       font-size="14"
       id="text3787"
       style="fill:#fc04a2;fill-opacity:1">φ</text>
    <text
       x="110"
       y="87"
       font-size="14"
       id="text3789"
       style="fill:#fc04a2;fill-opacity:1">θ</text>
  </g>
  <g
     fill="#fff"
     stroke="#000"
     stroke-width="1.5"
     id="g3797"
     style="stroke:#fc04a2;stroke-opacity:1">
    <circle
       cx="103"
       cy="33"
       r="4.5"
       id="circle3793"
       style="stroke:#fc04a2;stroke-opacity:1;fill:#120212;fill-opacity:1" />
    <circle
       cx="103"
       cy="233"
       r="4.5"
       id="circle3795"
       style="stroke:#fc04a2;stroke-opacity:1;fill:#120212;fill-opacity:1" />
  </g>
  <path
     d="M110 239v12m12 0 3-6-3-6"
     fill="none"
     stroke="#000"
     id="path3799"
     style="stroke:#fc04a2;stroke-opacity:1" />
  <text
     x="113"
     y="249"
     font-size="12"
     font-family="Bitstream Vera Sans"
     font-weight="400"
     id="text3801"
     style="fill:#fc04a2;fill-opacity:1">1</text>
  <path
     d="M83 15v12m12 0 3-6-3-6"
     fill="none"
     stroke="#000"
     id="path3803"
     style="stroke:#fc04a2;stroke-opacity:1" />
  <text
     x="86"
     y="25"
     font-size="12"
     font-family="Bitstream Vera Sans"
     font-weight="400"
     id="text3805"
     style="fill:#fc04a2;fill-opacity:1">0</text>
  <path
     d="M145 60v12m12 0 3-6-3-6"
     fill="none"
     stroke="#000"
     id="path3807"
     style="stroke:#fc04a2;stroke-opacity:1" />
  <text
     x="147"
     y="68"
     font-size="12"
     font-family="Bitstream Vera Serif"
     font-weight="400"
     font-style="italic"
     id="text3809"
     style="stroke:none;stroke-opacity:1;fill:#fc04a2;fill-opacity:1">ψ</text>
</svg>
