<?xml version="1.0" encoding="utf-8" standalone="no"?>
<!DOCTYPE svg PUBLIC "-//W3C//DTD SVG 1.1//EN"
  "http://www.w3.org/Graphics/SVG/1.1/DTD/svg11.dtd">
<svg xmlns:xlink="http://www.w3.org/1999/xlink" width="1514.88pt" height="1402.56pt" viewBox="0 0 1514.88 1402.56" xmlns="http://www.w3.org/2000/svg" version="1.1">
 <metadata>
  <rdf:RDF xmlns:dc="http://purl.org/dc/elements/1.1/" xmlns:cc="http://creativecommons.org/ns#" xmlns:rdf="http://www.w3.org/1999/02/22-rdf-syntax-ns#">
   <cc:Work>
    <dc:type rdf:resource="http://purl.org/dc/dcmitype/StillImage"/>
    <dc:date>2025-10-20T22:48:18.626807</dc:date>
    <dc:format>image/svg+xml</dc:format>
    <dc:creator>
     <cc:Agent>
      <dc:title>Matplotlib v3.5.1, https://matplotlib.org/</dc:title>
     </cc:Agent>
    </dc:creator>
   </cc:Work>
  </rdf:RDF>
 </metadata>
 <defs>
  <style type="text/css">*{stroke-linejoin: round; stroke-linecap: butt}</style>
 </defs>
 <g id="figure_1">
  <g id="patch_1">
   <path d="M 0 1402.56 
L 1514.88 1402.56 
L 1514.88 0 
L 0 0 
z
" style="fill: #ffffff"/>
  </g>
  <g id="axes_1">
   <g id="patch_2">
    <path d="M 189.36 1248.2784 
L 1363.392 1248.2784 
L 1363.392 168.3072 
L 189.36 168.3072 
z
" style="fill: #ffffff"/>
   </g>
   <g id="PathCollection_1">
    <defs>
     <path id="mc2c3bcab8f" d="M 0 8.660254 
C 2.296726 8.660254 4.499694 7.747755 6.123724 6.123724 
C 7.747755 4.499694 8.660254 2.296726 8.660254 0 
C 8.660254 -2.296726 7.747755 -4.499694 6.123724 -6.123724 
C 4.499694 -7.747755 2.296726 -8.660254 0 -8.660254 
C -2.296726 -8.660254 -4.499694 -7.747755 -6.123724 -6.123724 
C -7.747755 -4.499694 -8.660254 -2.296726 -8.660254 0 
C -8.660254 2.296726 -7.747755 4.499694 -6.123724 6.123724 
C -4.499694 7.747755 -2.296726 8.660254 0 8.660254 
z
" style="stroke: #ff0000"/>
    </defs>
    <g clip-path="url(#p8647900541)">
     <use xlink:href="#mc2c3bcab8f" x="1030.581332" y="983.535066" style="fill: #ff0000; stroke: #ff0000"/>
     <use xlink:href="#mc2c3bcab8f" x="1269.462229" y="1082.849286" style="fill: #ff0000; stroke: #ff0000"/>
     <use xlink:href="#mc2c3bcab8f" x="962.973531" y="881.383297" style="fill: #ff0000; stroke: #ff0000"/>
     <use xlink:href="#mc2c3bcab8f" x="981.903715" y="794.128661" style="fill: #ff0000; stroke: #ff0000"/>
     <use xlink:href="#mc2c3bcab8f" x="1246.024857" y="894.861655" style="fill: #ff0000; stroke: #ff0000"/>
     <use xlink:href="#mc2c3bcab8f" x="971.086467" y="833.854349" style="fill: #ff0000; stroke: #ff0000"/>
     <use xlink:href="#mc2c3bcab8f" x="1142.359563" y="947.356314" style="fill: #ff0000; stroke: #ff0000"/>
     <use xlink:href="#mc2c3bcab8f" x="1084.667572" y="841.657609" style="fill: #ff0000; stroke: #ff0000"/>
     <use xlink:href="#mc2c3bcab8f" x="1090.076197" y="869.323713" style="fill: #ff0000; stroke: #ff0000"/>
     <use xlink:href="#mc2c3bcab8f" x="1127.936565" y="969.34732" style="fill: #ff0000; stroke: #ff0000"/>
     <use xlink:href="#mc2c3bcab8f" x="1004.439649" y="989.919551" style="fill: #ff0000; stroke: #ff0000"/>
     <use xlink:href="#mc2c3bcab8f" x="1152.275373" y="921.818372" style="fill: #ff0000; stroke: #ff0000"/>
     <use xlink:href="#mc2c3bcab8f" x="1042.300017" y="838.110673" style="fill: #ff0000; stroke: #ff0000"/>
     <use xlink:href="#mc2c3bcab8f" x="1310.026909" y="987.082002" style="fill: #ff0000; stroke: #ff0000"/>
     <use xlink:href="#mc2c3bcab8f" x="1152.275373" y="703.327089" style="fill: #ff0000; stroke: #ff0000"/>
     <use xlink:href="#mc2c3bcab8f" x="876.435545" y="771.428268" style="fill: #ff0000; stroke: #ff0000"/>
     <use xlink:href="#mc2c3bcab8f" x="1104.499194" y="1027.517077" style="fill: #ff0000; stroke: #ff0000"/>
     <use xlink:href="#mc2c3bcab8f" x="1099.09057" y="977.15058" style="fill: #ff0000; stroke: #ff0000"/>
    </g>
   </g>
   <g id="PathCollection_2">
    <defs>
     <path id="mf70188ac31" d="M 0 -8.660254 
L -8.660254 8.660254 
L 8.660254 8.660254 
z
" style="stroke: #0000ff"/>
    </defs>
    <g clip-path="url(#p8647900541)">
     <use xlink:href="#mf70188ac31" x="582.566971" y="817.538442" style="fill: #0000ff; stroke: #0000ff"/>
     <use xlink:href="#mf70188ac31" x="413.096749" y="665.020176" style="fill: #0000ff; stroke: #0000ff"/>
     <use xlink:href="#mf70188ac31" x="423.913998" y="415.315852" style="fill: #0000ff; stroke: #0000ff"/>
     <use xlink:href="#mf70188ac31" x="302.219956" y="677.07976" style="fill: #0000ff; stroke: #0000ff"/>
     <use xlink:href="#mf70188ac31" x="242.725091" y="445.110118" style="fill: #0000ff; stroke: #0000ff"/>
     <use xlink:href="#mf70188ac31" x="706.063887" y="826.051089" style="fill: #0000ff; stroke: #0000ff"/>
     <use xlink:href="#mf70188ac31" x="370.729194" y="480.579482" style="fill: #0000ff; stroke: #0000ff"/>
     <use xlink:href="#mf70188ac31" x="259.8524" y="530.236592" style="fill: #0000ff; stroke: #0000ff"/>
     <use xlink:href="#mf70188ac31" x="543.805165" y="499.732939" style="fill: #0000ff; stroke: #0000ff"/>
     <use xlink:href="#mf70188ac31" x="381.546442" y="217.3968" style="fill: #0000ff; stroke: #0000ff"/>
    </g>
   </g>
   <g id="PathCollection_3">
    <defs>
     <path id="ma2e3305806" d="M -8.660254 8.660254 
L 8.660254 8.660254 
L 8.660254 -8.660254 
L -8.660254 -8.660254 
z
" style="stroke: #008000"/>
    </defs>
    <g clip-path="url(#p8647900541)">
     <use xlink:href="#ma2e3305806" x="880.942732" y="905.502465" style="fill: #008000; stroke: #008000"/>
     <use xlink:href="#ma2e3305806" x="825.053617" y="609.687968" style="fill: #008000; stroke: #008000"/>
     <use xlink:href="#ma2e3305806" x="839.476614" y="543.71495" style="fill: #008000; stroke: #008000"/>
     <use xlink:href="#ma2e3305806" x="817.842118" y="519.595783" style="fill: #008000; stroke: #008000"/>
     <use xlink:href="#ma2e3305806" x="909.788727" y="287.626141" style="fill: #008000; stroke: #008000"/>
     <use xlink:href="#ma2e3305806" x="788.094686" y="511.083135" style="fill: #008000; stroke: #008000"/>
     <use xlink:href="#ma2e3305806" x="932.324661" y="597.628384" style="fill: #008000; stroke: #008000"/>
     <use xlink:href="#ma2e3305806" x="873.731233" y="635.22591" style="fill: #008000; stroke: #008000"/>
     <use xlink:href="#ma2e3305806" x="950.353408" y="491.929679" style="fill: #008000; stroke: #008000"/>
     <use xlink:href="#ma2e3305806" x="894.464292" y="543.71495" style="fill: #008000; stroke: #008000"/>
    </g>
   </g>
   <g id="PathCollection_4">
    <defs>
     <path id="mdb6f7b66fc" d="M 0 -8.660254 
L -1.944348 -2.676166 
L -8.236391 -2.676166 
L -3.146021 1.022204 
L -5.09037 7.006293 
L -0 3.307923 
L 5.09037 7.006293 
L 3.146021 1.022204 
L 8.236391 -2.676166 
L 1.944348 -2.676166 
z
" style="stroke: #ff00ff"/>
    </defs>
    <g clip-path="url(#p8647900541)">
     <use xlink:href="#mdb6f7b66fc" x="743.924256" y="734.540129" style="fill: #ff00ff; stroke: #ff00ff"/>
     <use xlink:href="#mdb6f7b66fc" x="856.603924" y="1032.482788" style="fill: #ff00ff; stroke: #ff00ff"/>
     <use xlink:href="#mdb6f7b66fc" x="1040.497143" y="1199.1888" style="fill: #ff00ff; stroke: #ff00ff"/>
     <use xlink:href="#mdb6f7b66fc" x="843.082364" y="858.682904" style="fill: #ff00ff; stroke: #ff00ff"/>
     <use xlink:href="#mdb6f7b66fc" x="933.226098" y="944.518765" style="fill: #ff00ff; stroke: #ff00ff"/>
    </g>
   </g>
   <g id="PathCollection_5">
    <defs>
     <path id="m93a3335621" d="M -4.330127 8.660254 
L 0 4.330127 
L 4.330127 8.660254 
L 8.660254 4.330127 
L 4.330127 0 
L 8.660254 -4.330127 
L 4.330127 -8.660254 
L 0 -4.330127 
L -4.330127 -8.660254 
L -8.660254 -4.330127 
L -4.330127 0 
L -8.660254 4.330127 
z
" style="stroke: #ffa500"/>
    </defs>
    <g clip-path="url(#p8647900541)">
     <use xlink:href="#m93a3335621" x="1002.636774" y="733.121355" style="fill: #ffa500; stroke: #ffa500"/>
     <use xlink:href="#m93a3335621" x="1095.484821" y="979.988129" style="fill: #ffa500; stroke: #ffa500"/>
     <use xlink:href="#m93a3335621" x="1150.472499" y="920.399598" style="fill: #ffa500; stroke: #ffa500"/>
     <use xlink:href="#m93a3335621" x="792.601872" y="748.018488" style="fill: #ffa500; stroke: #ffa500"/>
     <use xlink:href="#m93a3335621" x="1093.681946" y="886.349008" style="fill: #ffa500; stroke: #ffa500"/>
    </g>
   </g>
   <g id="PathCollection_6">
    <defs>
     <path id="m90d9f01461" d="M 0 0 
L 0 8.660254 
M 0 0 
L 6.928203 -4.330127 
M 0 0 
L -6.928203 -4.330127 
" style="stroke: #800080; stroke-width: 1.5"/>
    </defs>
    <g clip-path="url(#p8647900541)">
     <use xlink:href="#m90d9f01461" x="1129.73944" y="953.031413" style="fill: #800080; stroke: #800080; stroke-width: 1.5"/>
     <use xlink:href="#m90d9f01461" x="918.803101" y="902.664916" style="fill: #800080; stroke: #800080; stroke-width: 1.5"/>
     <use xlink:href="#m90d9f01461" x="1187.43143" y="1198.479413" style="fill: #800080; stroke: #800080; stroke-width: 1.5"/>
     <use xlink:href="#m90d9f01461" x="1158.585435" y="1171.522696" style="fill: #800080; stroke: #800080; stroke-width: 1.5"/>
    </g>
   </g>
   <g id="matplotlib.axis_1">
    <g id="xtick_1">
     <g id="line2d_1">
      <path d="M 230.104968 1248.2784 
L 230.104968 168.3072 
" clip-path="url(#p8647900541)" style="fill: none; stroke: #b0b0b0; stroke-width: 0.8; stroke-linecap: square"/>
     </g>
     <g id="line2d_2">
      <defs>
       <path id="md3622ad768" d="M 0 0 
L 0 3.5 
" style="stroke: #000000; stroke-width: 0.8"/>
      </defs>
      <g>
       <use xlink:href="#md3622ad768" x="230.104968" y="1248.2784" style="stroke: #000000; stroke-width: 0.8"/>
      </g>
     </g>
     <g id="text_1">
      <!-- 600 -->
      <g transform="translate(199.564968 1279.5934)scale(0.32 -0.32)">
       <defs>
        <path id="DejaVuSans-36" d="M 2113 2584 
Q 1688 2584 1439 2293 
Q 1191 2003 1191 1497 
Q 1191 994 1439 701 
Q 1688 409 2113 409 
Q 2538 409 2786 701 
Q 3034 994 3034 1497 
Q 3034 2003 2786 2293 
Q 2538 2584 2113 2584 
z
M 3366 4563 
L 3366 3988 
Q 3128 4100 2886 4159 
Q 2644 4219 2406 4219 
Q 1781 4219 1451 3797 
Q 1122 3375 1075 2522 
Q 1259 2794 1537 2939 
Q 1816 3084 2150 3084 
Q 2853 3084 3261 2657 
Q 3669 2231 3669 1497 
Q 3669 778 3244 343 
Q 2819 -91 2113 -91 
Q 1303 -91 875 529 
Q 447 1150 447 2328 
Q 447 3434 972 4092 
Q 1497 4750 2381 4750 
Q 2619 4750 2861 4703 
Q 3103 4656 3366 4563 
z
" transform="scale(0.015625)"/>
        <path id="DejaVuSans-30" d="M 2034 4250 
Q 1547 4250 1301 3770 
Q 1056 3291 1056 2328 
Q 1056 1369 1301 889 
Q 1547 409 2034 409 
Q 2525 409 2770 889 
Q 3016 1369 3016 2328 
Q 3016 3291 2770 3770 
Q 2525 4250 2034 4250 
z
M 2034 4750 
Q 2819 4750 3233 4129 
Q 3647 3509 3647 2328 
Q 3647 1150 3233 529 
Q 2819 -91 2034 -91 
Q 1250 -91 836 529 
Q 422 1150 422 2328 
Q 422 3509 836 4129 
Q 1250 4750 2034 4750 
z
" transform="scale(0.015625)"/>
       </defs>
       <use xlink:href="#DejaVuSans-36"/>
       <use xlink:href="#DejaVuSans-30" x="63.623047"/>
       <use xlink:href="#DejaVuSans-30" x="127.246094"/>
      </g>
     </g>
    </g>
    <g id="xtick_2">
     <g id="line2d_3">
      <path d="M 410.392437 1248.2784 
L 410.392437 168.3072 
" clip-path="url(#p8647900541)" style="fill: none; stroke: #b0b0b0; stroke-width: 0.8; stroke-linecap: square"/>
     </g>
     <g id="line2d_4">
      <g>
       <use xlink:href="#md3622ad768" x="410.392437" y="1248.2784" style="stroke: #000000; stroke-width: 0.8"/>
      </g>
     </g>
     <g id="text_2">
      <!-- 800 -->
      <g transform="translate(379.852437 1279.5934)scale(0.32 -0.32)">
       <defs>
        <path id="DejaVuSans-38" d="M 2034 2216 
Q 1584 2216 1326 1975 
Q 1069 1734 1069 1313 
Q 1069 891 1326 650 
Q 1584 409 2034 409 
Q 2484 409 2743 651 
Q 3003 894 3003 1313 
Q 3003 1734 2745 1975 
Q 2488 2216 2034 2216 
z
M 1403 2484 
Q 997 2584 770 2862 
Q 544 3141 544 3541 
Q 544 4100 942 4425 
Q 1341 4750 2034 4750 
Q 2731 4750 3128 4425 
Q 3525 4100 3525 3541 
Q 3525 3141 3298 2862 
Q 3072 2584 2669 2484 
Q 3125 2378 3379 2068 
Q 3634 1759 3634 1313 
Q 3634 634 3220 271 
Q 2806 -91 2034 -91 
Q 1263 -91 848 271 
Q 434 634 434 1313 
Q 434 1759 690 2068 
Q 947 2378 1403 2484 
z
M 1172 3481 
Q 1172 3119 1398 2916 
Q 1625 2713 2034 2713 
Q 2441 2713 2670 2916 
Q 2900 3119 2900 3481 
Q 2900 3844 2670 4047 
Q 2441 4250 2034 4250 
Q 1625 4250 1398 4047 
Q 1172 3844 1172 3481 
z
" transform="scale(0.015625)"/>
       </defs>
       <use xlink:href="#DejaVuSans-38"/>
       <use xlink:href="#DejaVuSans-30" x="63.623047"/>
       <use xlink:href="#DejaVuSans-30" x="127.246094"/>
      </g>
     </g>
    </g>
    <g id="xtick_3">
     <g id="line2d_5">
      <path d="M 590.679907 1248.2784 
L 590.679907 168.3072 
" clip-path="url(#p8647900541)" style="fill: none; stroke: #b0b0b0; stroke-width: 0.8; stroke-linecap: square"/>
     </g>
     <g id="line2d_6">
      <g>
       <use xlink:href="#md3622ad768" x="590.679907" y="1248.2784" style="stroke: #000000; stroke-width: 0.8"/>
      </g>
     </g>
     <g id="text_3">
      <!-- 1000 -->
      <g transform="translate(549.959907 1279.5934)scale(0.32 -0.32)">
       <defs>
        <path id="DejaVuSans-31" d="M 794 531 
L 1825 531 
L 1825 4091 
L 703 3866 
L 703 4441 
L 1819 4666 
L 2450 4666 
L 2450 531 
L 3481 531 
L 3481 0 
L 794 0 
L 794 531 
z
" transform="scale(0.015625)"/>
       </defs>
       <use xlink:href="#DejaVuSans-31"/>
       <use xlink:href="#DejaVuSans-30" x="63.623047"/>
       <use xlink:href="#DejaVuSans-30" x="127.246094"/>
       <use xlink:href="#DejaVuSans-30" x="190.869141"/>
      </g>
     </g>
    </g>
    <g id="xtick_4">
     <g id="line2d_7">
      <path d="M 770.967376 1248.2784 
L 770.967376 168.3072 
" clip-path="url(#p8647900541)" style="fill: none; stroke: #b0b0b0; stroke-width: 0.8; stroke-linecap: square"/>
     </g>
     <g id="line2d_8">
      <g>
       <use xlink:href="#md3622ad768" x="770.967376" y="1248.2784" style="stroke: #000000; stroke-width: 0.8"/>
      </g>
     </g>
     <g id="text_4">
      <!-- 1200 -->
      <g transform="translate(730.247376 1279.5934)scale(0.32 -0.32)">
       <defs>
        <path id="DejaVuSans-32" d="M 1228 531 
L 3431 531 
L 3431 0 
L 469 0 
L 469 531 
Q 828 903 1448 1529 
Q 2069 2156 2228 2338 
Q 2531 2678 2651 2914 
Q 2772 3150 2772 3378 
Q 2772 3750 2511 3984 
Q 2250 4219 1831 4219 
Q 1534 4219 1204 4116 
Q 875 4013 500 3803 
L 500 4441 
Q 881 4594 1212 4672 
Q 1544 4750 1819 4750 
Q 2544 4750 2975 4387 
Q 3406 4025 3406 3419 
Q 3406 3131 3298 2873 
Q 3191 2616 2906 2266 
Q 2828 2175 2409 1742 
Q 1991 1309 1228 531 
z
" transform="scale(0.015625)"/>
       </defs>
       <use xlink:href="#DejaVuSans-31"/>
       <use xlink:href="#DejaVuSans-32" x="63.623047"/>
       <use xlink:href="#DejaVuSans-30" x="127.246094"/>
       <use xlink:href="#DejaVuSans-30" x="190.869141"/>
      </g>
     </g>
    </g>
    <g id="xtick_5">
     <g id="line2d_9">
      <path d="M 951.254845 1248.2784 
L 951.254845 168.3072 
" clip-path="url(#p8647900541)" style="fill: none; stroke: #b0b0b0; stroke-width: 0.8; stroke-linecap: square"/>
     </g>
     <g id="line2d_10">
      <g>
       <use xlink:href="#md3622ad768" x="951.254845" y="1248.2784" style="stroke: #000000; stroke-width: 0.8"/>
      </g>
     </g>
     <g id="text_5">
      <!-- 1400 -->
      <g transform="translate(910.534845 1279.5934)scale(0.32 -0.32)">
       <defs>
        <path id="DejaVuSans-34" d="M 2419 4116 
L 825 1625 
L 2419 1625 
L 2419 4116 
z
M 2253 4666 
L 3047 4666 
L 3047 1625 
L 3713 1625 
L 3713 1100 
L 3047 1100 
L 3047 0 
L 2419 0 
L 2419 1100 
L 313 1100 
L 313 1709 
L 2253 4666 
z
" transform="scale(0.015625)"/>
       </defs>
       <use xlink:href="#DejaVuSans-31"/>
       <use xlink:href="#DejaVuSans-34" x="63.623047"/>
       <use xlink:href="#DejaVuSans-30" x="127.246094"/>
       <use xlink:href="#DejaVuSans-30" x="190.869141"/>
      </g>
     </g>
    </g>
    <g id="xtick_6">
     <g id="line2d_11">
      <path d="M 1131.542314 1248.2784 
L 1131.542314 168.3072 
" clip-path="url(#p8647900541)" style="fill: none; stroke: #b0b0b0; stroke-width: 0.8; stroke-linecap: square"/>
     </g>
     <g id="line2d_12">
      <g>
       <use xlink:href="#md3622ad768" x="1131.542314" y="1248.2784" style="stroke: #000000; stroke-width: 0.8"/>
      </g>
     </g>
     <g id="text_6">
      <!-- 1600 -->
      <g transform="translate(1090.822314 1279.5934)scale(0.32 -0.32)">
       <use xlink:href="#DejaVuSans-31"/>
       <use xlink:href="#DejaVuSans-36" x="63.623047"/>
       <use xlink:href="#DejaVuSans-30" x="127.246094"/>
       <use xlink:href="#DejaVuSans-30" x="190.869141"/>
      </g>
     </g>
    </g>
    <g id="xtick_7">
     <g id="line2d_13">
      <path d="M 1311.829784 1248.2784 
L 1311.829784 168.3072 
" clip-path="url(#p8647900541)" style="fill: none; stroke: #b0b0b0; stroke-width: 0.8; stroke-linecap: square"/>
     </g>
     <g id="line2d_14">
      <g>
       <use xlink:href="#md3622ad768" x="1311.829784" y="1248.2784" style="stroke: #000000; stroke-width: 0.8"/>
      </g>
     </g>
     <g id="text_7">
      <!-- 1800 -->
      <g transform="translate(1271.109784 1279.5934)scale(0.32 -0.32)">
       <use xlink:href="#DejaVuSans-31"/>
       <use xlink:href="#DejaVuSans-38" x="63.623047"/>
       <use xlink:href="#DejaVuSans-30" x="127.246094"/>
       <use xlink:href="#DejaVuSans-30" x="190.869141"/>
      </g>
     </g>
    </g>
    <g id="text_8">
     <!-- F2 - F1 (Hz) -->
     <g transform="translate(683.6685 1314.5634)scale(0.32 -0.32)">
      <defs>
       <path id="DejaVuSans-46" d="M 628 4666 
L 3309 4666 
L 3309 4134 
L 1259 4134 
L 1259 2759 
L 3109 2759 
L 3109 2228 
L 1259 2228 
L 1259 0 
L 628 0 
L 628 4666 
z
" transform="scale(0.015625)"/>
       <path id="DejaVuSans-20" transform="scale(0.015625)"/>
       <path id="DejaVuSans-2d" d="M 313 2009 
L 1997 2009 
L 1997 1497 
L 313 1497 
L 313 2009 
z
" transform="scale(0.015625)"/>
       <path id="DejaVuSans-28" d="M 1984 4856 
Q 1566 4138 1362 3434 
Q 1159 2731 1159 2009 
Q 1159 1288 1364 580 
Q 1569 -128 1984 -844 
L 1484 -844 
Q 1016 -109 783 600 
Q 550 1309 550 2009 
Q 550 2706 781 3412 
Q 1013 4119 1484 4856 
L 1984 4856 
z
" transform="scale(0.015625)"/>
       <path id="DejaVuSans-48" d="M 628 4666 
L 1259 4666 
L 1259 2753 
L 3553 2753 
L 3553 4666 
L 4184 4666 
L 4184 0 
L 3553 0 
L 3553 2222 
L 1259 2222 
L 1259 0 
L 628 0 
L 628 4666 
z
" transform="scale(0.015625)"/>
       <path id="DejaVuSans-7a" d="M 353 3500 
L 3084 3500 
L 3084 2975 
L 922 459 
L 3084 459 
L 3084 0 
L 275 0 
L 275 525 
L 2438 3041 
L 353 3041 
L 353 3500 
z
" transform="scale(0.015625)"/>
       <path id="DejaVuSans-29" d="M 513 4856 
L 1013 4856 
Q 1481 4119 1714 3412 
Q 1947 2706 1947 2009 
Q 1947 1309 1714 600 
Q 1481 -109 1013 -844 
L 513 -844 
Q 928 -128 1133 580 
Q 1338 1288 1338 2009 
Q 1338 2731 1133 3434 
Q 928 4138 513 4856 
z
" transform="scale(0.015625)"/>
      </defs>
      <use xlink:href="#DejaVuSans-46"/>
      <use xlink:href="#DejaVuSans-32" x="57.519531"/>
      <use xlink:href="#DejaVuSans-20" x="121.142578"/>
      <use xlink:href="#DejaVuSans-2d" x="152.929688"/>
      <use xlink:href="#DejaVuSans-20" x="189.013672"/>
      <use xlink:href="#DejaVuSans-46" x="220.800781"/>
      <use xlink:href="#DejaVuSans-31" x="278.320312"/>
      <use xlink:href="#DejaVuSans-20" x="341.943359"/>
      <use xlink:href="#DejaVuSans-28" x="373.730469"/>
      <use xlink:href="#DejaVuSans-48" x="412.744141"/>
      <use xlink:href="#DejaVuSans-7a" x="487.939453"/>
      <use xlink:href="#DejaVuSans-29" x="540.429688"/>
     </g>
    </g>
   </g>
   <g id="matplotlib.axis_2">
    <g id="ytick_1">
     <g id="line2d_15">
      <path d="M 189.36 1177.197794 
L 1363.392 1177.197794 
" clip-path="url(#p8647900541)" style="fill: none; stroke: #b0b0b0; stroke-width: 0.8; stroke-linecap: square"/>
     </g>
     <g id="line2d_16">
      <defs>
       <path id="mcc4ce5dfc3" d="M 0 0 
L -3.5 0 
" style="stroke: #000000; stroke-width: 0.8"/>
      </defs>
      <g>
       <use xlink:href="#mcc4ce5dfc3" x="189.36" y="1177.197794" style="stroke: #000000; stroke-width: 0.8"/>
      </g>
     </g>
     <g id="text_9">
      <!-- 400 -->
      <g transform="translate(121.28 1189.355294)scale(0.32 -0.32)">
       <use xlink:href="#DejaVuSans-34"/>
       <use xlink:href="#DejaVuSans-30" x="63.623047"/>
       <use xlink:href="#DejaVuSans-30" x="127.246094"/>
      </g>
     </g>
    </g>
    <g id="ytick_2">
     <g id="line2d_17">
      <path d="M 189.36 1035.320338 
L 1363.392 1035.320338 
" clip-path="url(#p8647900541)" style="fill: none; stroke: #b0b0b0; stroke-width: 0.8; stroke-linecap: square"/>
     </g>
     <g id="line2d_18">
      <g>
       <use xlink:href="#mcc4ce5dfc3" x="189.36" y="1035.320338" style="stroke: #000000; stroke-width: 0.8"/>
      </g>
     </g>
     <g id="text_10">
      <!-- 600 -->
      <g transform="translate(121.28 1047.477838)scale(0.32 -0.32)">
       <use xlink:href="#DejaVuSans-36"/>
       <use xlink:href="#DejaVuSans-30" x="63.623047"/>
       <use xlink:href="#DejaVuSans-30" x="127.246094"/>
      </g>
     </g>
    </g>
    <g id="ytick_3">
     <g id="line2d_19">
      <path d="M 189.36 893.442881 
L 1363.392 893.442881 
" clip-path="url(#p8647900541)" style="fill: none; stroke: #b0b0b0; stroke-width: 0.8; stroke-linecap: square"/>
     </g>
     <g id="line2d_20">
      <g>
       <use xlink:href="#mcc4ce5dfc3" x="189.36" y="893.442881" style="stroke: #000000; stroke-width: 0.8"/>
      </g>
     </g>
     <g id="text_11">
      <!-- 800 -->
      <g transform="translate(121.28 905.600381)scale(0.32 -0.32)">
       <use xlink:href="#DejaVuSans-38"/>
       <use xlink:href="#DejaVuSans-30" x="63.623047"/>
       <use xlink:href="#DejaVuSans-30" x="127.246094"/>
      </g>
     </g>
    </g>
    <g id="ytick_4">
     <g id="line2d_21">
      <path d="M 189.36 751.565424 
L 1363.392 751.565424 
" clip-path="url(#p8647900541)" style="fill: none; stroke: #b0b0b0; stroke-width: 0.8; stroke-linecap: square"/>
     </g>
     <g id="line2d_22">
      <g>
       <use xlink:href="#mcc4ce5dfc3" x="189.36" y="751.565424" style="stroke: #000000; stroke-width: 0.8"/>
      </g>
     </g>
     <g id="text_12">
      <!-- 1000 -->
      <g transform="translate(100.92 763.722924)scale(0.32 -0.32)">
       <use xlink:href="#DejaVuSans-31"/>
       <use xlink:href="#DejaVuSans-30" x="63.623047"/>
       <use xlink:href="#DejaVuSans-30" x="127.246094"/>
       <use xlink:href="#DejaVuSans-30" x="190.869141"/>
      </g>
     </g>
    </g>
    <g id="ytick_5">
     <g id="line2d_23">
      <path d="M 189.36 609.687968 
L 1363.392 609.687968 
" clip-path="url(#p8647900541)" style="fill: none; stroke: #b0b0b0; stroke-width: 0.8; stroke-linecap: square"/>
     </g>
     <g id="line2d_24">
      <g>
       <use xlink:href="#mcc4ce5dfc3" x="189.36" y="609.687968" style="stroke: #000000; stroke-width: 0.8"/>
      </g>
     </g>
     <g id="text_13">
      <!-- 1200 -->
      <g transform="translate(100.92 621.845468)scale(0.32 -0.32)">
       <use xlink:href="#DejaVuSans-31"/>
       <use xlink:href="#DejaVuSans-32" x="63.623047"/>
       <use xlink:href="#DejaVuSans-30" x="127.246094"/>
       <use xlink:href="#DejaVuSans-30" x="190.869141"/>
      </g>
     </g>
    </g>
    <g id="ytick_6">
     <g id="line2d_25">
      <path d="M 189.36 467.810511 
L 1363.392 467.810511 
" clip-path="url(#p8647900541)" style="fill: none; stroke: #b0b0b0; stroke-width: 0.8; stroke-linecap: square"/>
     </g>
     <g id="line2d_26">
      <g>
       <use xlink:href="#mcc4ce5dfc3" x="189.36" y="467.810511" style="stroke: #000000; stroke-width: 0.8"/>
      </g>
     </g>
     <g id="text_14">
      <!-- 1400 -->
      <g transform="translate(100.92 479.968011)scale(0.32 -0.32)">
       <use xlink:href="#DejaVuSans-31"/>
       <use xlink:href="#DejaVuSans-34" x="63.623047"/>
       <use xlink:href="#DejaVuSans-30" x="127.246094"/>
       <use xlink:href="#DejaVuSans-30" x="190.869141"/>
      </g>
     </g>
    </g>
    <g id="ytick_7">
     <g id="line2d_27">
      <path d="M 189.36 325.933054 
L 1363.392 325.933054 
" clip-path="url(#p8647900541)" style="fill: none; stroke: #b0b0b0; stroke-width: 0.8; stroke-linecap: square"/>
     </g>
     <g id="line2d_28">
      <g>
       <use xlink:href="#mcc4ce5dfc3" x="189.36" y="325.933054" style="stroke: #000000; stroke-width: 0.8"/>
      </g>
     </g>
     <g id="text_15">
      <!-- 1600 -->
      <g transform="translate(100.92 338.090554)scale(0.32 -0.32)">
       <use xlink:href="#DejaVuSans-31"/>
       <use xlink:href="#DejaVuSans-36" x="63.623047"/>
       <use xlink:href="#DejaVuSans-30" x="127.246094"/>
       <use xlink:href="#DejaVuSans-30" x="190.869141"/>
      </g>
     </g>
    </g>
    <g id="ytick_8">
     <g id="line2d_29">
      <path d="M 189.36 184.055598 
L 1363.392 184.055598 
" clip-path="url(#p8647900541)" style="fill: none; stroke: #b0b0b0; stroke-width: 0.8; stroke-linecap: square"/>
     </g>
     <g id="line2d_30">
      <g>
       <use xlink:href="#mcc4ce5dfc3" x="189.36" y="184.055598" style="stroke: #000000; stroke-width: 0.8"/>
      </g>
     </g>
     <g id="text_16">
      <!-- 1800 -->
      <g transform="translate(100.92 196.213098)scale(0.32 -0.32)">
       <use xlink:href="#DejaVuSans-31"/>
       <use xlink:href="#DejaVuSans-38" x="63.623047"/>
       <use xlink:href="#DejaVuSans-30" x="127.246094"/>
       <use xlink:href="#DejaVuSans-30" x="190.869141"/>
      </g>
     </g>
    </g>
    <g id="text_17">
     <!-- F3 - F2 (Hz) -->
     <g transform="translate(90.265 801.0003)rotate(-90)scale(0.32 -0.32)">
      <defs>
       <path id="DejaVuSans-33" d="M 2597 2516 
Q 3050 2419 3304 2112 
Q 3559 1806 3559 1356 
Q 3559 666 3084 287 
Q 2609 -91 1734 -91 
Q 1441 -91 1130 -33 
Q 819 25 488 141 
L 488 750 
Q 750 597 1062 519 
Q 1375 441 1716 441 
Q 2309 441 2620 675 
Q 2931 909 2931 1356 
Q 2931 1769 2642 2001 
Q 2353 2234 1838 2234 
L 1294 2234 
L 1294 2753 
L 1863 2753 
Q 2328 2753 2575 2939 
Q 2822 3125 2822 3475 
Q 2822 3834 2567 4026 
Q 2313 4219 1838 4219 
Q 1578 4219 1281 4162 
Q 984 4106 628 3988 
L 628 4550 
Q 988 4650 1302 4700 
Q 1616 4750 1894 4750 
Q 2613 4750 3031 4423 
Q 3450 4097 3450 3541 
Q 3450 3153 3228 2886 
Q 3006 2619 2597 2516 
z
" transform="scale(0.015625)"/>
      </defs>
      <use xlink:href="#DejaVuSans-46"/>
      <use xlink:href="#DejaVuSans-33" x="57.519531"/>
      <use xlink:href="#DejaVuSans-20" x="121.142578"/>
      <use xlink:href="#DejaVuSans-2d" x="152.929688"/>
      <use xlink:href="#DejaVuSans-20" x="189.013672"/>
      <use xlink:href="#DejaVuSans-46" x="220.800781"/>
      <use xlink:href="#DejaVuSans-32" x="278.320312"/>
      <use xlink:href="#DejaVuSans-20" x="341.943359"/>
      <use xlink:href="#DejaVuSans-28" x="373.730469"/>
      <use xlink:href="#DejaVuSans-48" x="412.744141"/>
      <use xlink:href="#DejaVuSans-7a" x="487.939453"/>
      <use xlink:href="#DejaVuSans-29" x="540.429688"/>
     </g>
    </g>
   </g>
   <g id="patch_3">
    <path d="M 189.36 1248.2784 
L 189.36 168.3072 
" style="fill: none; stroke: #000000; stroke-width: 0.8; stroke-linejoin: miter; stroke-linecap: square"/>
   </g>
   <g id="patch_4">
    <path d="M 1363.392 1248.2784 
L 1363.392 168.3072 
" style="fill: none; stroke: #000000; stroke-width: 0.8; stroke-linejoin: miter; stroke-linecap: square"/>
   </g>
   <g id="patch_5">
    <path d="M 189.36 1248.2784 
L 1363.392 1248.2784 
" style="fill: none; stroke: #000000; stroke-width: 0.8; stroke-linejoin: miter; stroke-linecap: square"/>
   </g>
   <g id="patch_6">
    <path d="M 189.36 168.3072 
L 1363.392 168.3072 
" style="fill: none; stroke: #000000; stroke-width: 0.8; stroke-linejoin: miter; stroke-linecap: square"/>
   </g>
   <g id="legend_1">
    <g id="patch_7">
     <path d="M 1066.937 475.7272 
L 1340.992 475.7272 
Q 1347.392 475.7272 1347.392 469.3272 
L 1347.392 190.7072 
Q 1347.392 184.3072 1340.992 184.3072 
L 1066.937 184.3072 
Q 1060.537 184.3072 1060.537 190.7072 
L 1060.537 469.3272 
Q 1060.537 475.7272 1066.937 475.7272 
z
" style="fill: #ffffff; opacity: 0.8; stroke: #cccccc; stroke-linejoin: miter"/>
    </g>
    <g id="PathCollection_7">
     <g>
      <use xlink:href="#mc2c3bcab8f" x="1105.337" y="213.0222" style="fill: #ff0000; stroke: #ff0000"/>
     </g>
    </g>
    <g id="text_18">
     <!-- kit -->
     <g transform="translate(1162.937 221.4222)scale(0.32 -0.32)">
      <defs>
       <path id="DejaVuSans-6b" d="M 581 4863 
L 1159 4863 
L 1159 1991 
L 2875 3500 
L 3609 3500 
L 1753 1863 
L 3688 0 
L 2938 0 
L 1159 1709 
L 1159 0 
L 581 0 
L 581 4863 
z
" transform="scale(0.015625)"/>
       <path id="DejaVuSans-69" d="M 603 3500 
L 1178 3500 
L 1178 0 
L 603 0 
L 603 3500 
z
M 603 4863 
L 1178 4863 
L 1178 4134 
L 603 4134 
L 603 4863 
z
" transform="scale(0.015625)"/>
       <path id="DejaVuSans-74" d="M 1172 4494 
L 1172 3500 
L 2356 3500 
L 2356 3053 
L 1172 3053 
L 1172 1153 
Q 1172 725 1289 603 
Q 1406 481 1766 481 
L 2356 481 
L 2356 0 
L 1766 0 
Q 1100 0 847 248 
Q 594 497 594 1153 
L 594 3053 
L 172 3053 
L 172 3500 
L 594 3500 
L 594 4494 
L 1172 4494 
z
" transform="scale(0.015625)"/>
      </defs>
      <use xlink:href="#DejaVuSans-6b"/>
      <use xlink:href="#DejaVuSans-69" x="57.910156"/>
      <use xlink:href="#DejaVuSans-74" x="85.693359"/>
     </g>
    </g>
    <g id="PathCollection_8">
     <g>
      <use xlink:href="#mf70188ac31" x="1105.337" y="259.9922" style="fill: #0000ff; stroke: #0000ff"/>
     </g>
    </g>
    <g id="text_19">
     <!-- strut -->
     <g transform="translate(1162.937 268.3922)scale(0.32 -0.32)">
      <defs>
       <path id="DejaVuSans-73" d="M 2834 3397 
L 2834 2853 
Q 2591 2978 2328 3040 
Q 2066 3103 1784 3103 
Q 1356 3103 1142 2972 
Q 928 2841 928 2578 
Q 928 2378 1081 2264 
Q 1234 2150 1697 2047 
L 1894 2003 
Q 2506 1872 2764 1633 
Q 3022 1394 3022 966 
Q 3022 478 2636 193 
Q 2250 -91 1575 -91 
Q 1294 -91 989 -36 
Q 684 19 347 128 
L 347 722 
Q 666 556 975 473 
Q 1284 391 1588 391 
Q 1994 391 2212 530 
Q 2431 669 2431 922 
Q 2431 1156 2273 1281 
Q 2116 1406 1581 1522 
L 1381 1569 
Q 847 1681 609 1914 
Q 372 2147 372 2553 
Q 372 3047 722 3315 
Q 1072 3584 1716 3584 
Q 2034 3584 2315 3537 
Q 2597 3491 2834 3397 
z
" transform="scale(0.015625)"/>
       <path id="DejaVuSans-72" d="M 2631 2963 
Q 2534 3019 2420 3045 
Q 2306 3072 2169 3072 
Q 1681 3072 1420 2755 
Q 1159 2438 1159 1844 
L 1159 0 
L 581 0 
L 581 3500 
L 1159 3500 
L 1159 2956 
Q 1341 3275 1631 3429 
Q 1922 3584 2338 3584 
Q 2397 3584 2469 3576 
Q 2541 3569 2628 3553 
L 2631 2963 
z
" transform="scale(0.015625)"/>
       <path id="DejaVuSans-75" d="M 544 1381 
L 544 3500 
L 1119 3500 
L 1119 1403 
Q 1119 906 1312 657 
Q 1506 409 1894 409 
Q 2359 409 2629 706 
Q 2900 1003 2900 1516 
L 2900 3500 
L 3475 3500 
L 3475 0 
L 2900 0 
L 2900 538 
Q 2691 219 2414 64 
Q 2138 -91 1772 -91 
Q 1169 -91 856 284 
Q 544 659 544 1381 
z
M 1991 3584 
L 1991 3584 
z
" transform="scale(0.015625)"/>
      </defs>
      <use xlink:href="#DejaVuSans-73"/>
      <use xlink:href="#DejaVuSans-74" x="52.099609"/>
      <use xlink:href="#DejaVuSans-72" x="91.308594"/>
      <use xlink:href="#DejaVuSans-75" x="132.421875"/>
      <use xlink:href="#DejaVuSans-74" x="195.800781"/>
     </g>
    </g>
    <g id="PathCollection_9">
     <g>
      <use xlink:href="#ma2e3305806" x="1105.337" y="306.9622" style="fill: #008000; stroke: #008000"/>
     </g>
    </g>
    <g id="text_20">
     <!-- schwa -->
     <g transform="translate(1162.937 315.3622)scale(0.32 -0.32)">
      <defs>
       <path id="DejaVuSans-63" d="M 3122 3366 
L 3122 2828 
Q 2878 2963 2633 3030 
Q 2388 3097 2138 3097 
Q 1578 3097 1268 2742 
Q 959 2388 959 1747 
Q 959 1106 1268 751 
Q 1578 397 2138 397 
Q 2388 397 2633 464 
Q 2878 531 3122 666 
L 3122 134 
Q 2881 22 2623 -34 
Q 2366 -91 2075 -91 
Q 1284 -91 818 406 
Q 353 903 353 1747 
Q 353 2603 823 3093 
Q 1294 3584 2113 3584 
Q 2378 3584 2631 3529 
Q 2884 3475 3122 3366 
z
" transform="scale(0.015625)"/>
       <path id="DejaVuSans-68" d="M 3513 2113 
L 3513 0 
L 2938 0 
L 2938 2094 
Q 2938 2591 2744 2837 
Q 2550 3084 2163 3084 
Q 1697 3084 1428 2787 
Q 1159 2491 1159 1978 
L 1159 0 
L 581 0 
L 581 4863 
L 1159 4863 
L 1159 2956 
Q 1366 3272 1645 3428 
Q 1925 3584 2291 3584 
Q 2894 3584 3203 3211 
Q 3513 2838 3513 2113 
z
" transform="scale(0.015625)"/>
       <path id="DejaVuSans-77" d="M 269 3500 
L 844 3500 
L 1563 769 
L 2278 3500 
L 2956 3500 
L 3675 769 
L 4391 3500 
L 4966 3500 
L 4050 0 
L 3372 0 
L 2619 2869 
L 1863 0 
L 1184 0 
L 269 3500 
z
" transform="scale(0.015625)"/>
       <path id="DejaVuSans-61" d="M 2194 1759 
Q 1497 1759 1228 1600 
Q 959 1441 959 1056 
Q 959 750 1161 570 
Q 1363 391 1709 391 
Q 2188 391 2477 730 
Q 2766 1069 2766 1631 
L 2766 1759 
L 2194 1759 
z
M 3341 1997 
L 3341 0 
L 2766 0 
L 2766 531 
Q 2569 213 2275 61 
Q 1981 -91 1556 -91 
Q 1019 -91 701 211 
Q 384 513 384 1019 
Q 384 1609 779 1909 
Q 1175 2209 1959 2209 
L 2766 2209 
L 2766 2266 
Q 2766 2663 2505 2880 
Q 2244 3097 1772 3097 
Q 1472 3097 1187 3025 
Q 903 2953 641 2809 
L 641 3341 
Q 956 3463 1253 3523 
Q 1550 3584 1831 3584 
Q 2591 3584 2966 3190 
Q 3341 2797 3341 1997 
z
" transform="scale(0.015625)"/>
      </defs>
      <use xlink:href="#DejaVuSans-73"/>
      <use xlink:href="#DejaVuSans-63" x="52.099609"/>
      <use xlink:href="#DejaVuSans-68" x="107.080078"/>
      <use xlink:href="#DejaVuSans-77" x="170.458984"/>
      <use xlink:href="#DejaVuSans-61" x="252.246094"/>
     </g>
    </g>
    <g id="PathCollection_10">
     <g>
      <use xlink:href="#mdb6f7b66fc" x="1105.337" y="353.9322" style="fill: #ff00ff; stroke: #ff00ff"/>
     </g>
    </g>
    <g id="text_21">
     <!-- a (weak) -->
     <g transform="translate(1162.937 362.3322)scale(0.32 -0.32)">
      <defs>
       <path id="DejaVuSans-65" d="M 3597 1894 
L 3597 1613 
L 953 1613 
Q 991 1019 1311 708 
Q 1631 397 2203 397 
Q 2534 397 2845 478 
Q 3156 559 3463 722 
L 3463 178 
Q 3153 47 2828 -22 
Q 2503 -91 2169 -91 
Q 1331 -91 842 396 
Q 353 884 353 1716 
Q 353 2575 817 3079 
Q 1281 3584 2069 3584 
Q 2775 3584 3186 3129 
Q 3597 2675 3597 1894 
z
M 3022 2063 
Q 3016 2534 2758 2815 
Q 2500 3097 2075 3097 
Q 1594 3097 1305 2825 
Q 1016 2553 972 2059 
L 3022 2063 
z
" transform="scale(0.015625)"/>
      </defs>
      <use xlink:href="#DejaVuSans-61"/>
      <use xlink:href="#DejaVuSans-20" x="61.279297"/>
      <use xlink:href="#DejaVuSans-28" x="93.066406"/>
      <use xlink:href="#DejaVuSans-77" x="132.080078"/>
      <use xlink:href="#DejaVuSans-65" x="213.867188"/>
      <use xlink:href="#DejaVuSans-61" x="275.390625"/>
      <use xlink:href="#DejaVuSans-6b" x="336.669922"/>
      <use xlink:href="#DejaVuSans-29" x="394.580078"/>
     </g>
    </g>
    <g id="PathCollection_11">
     <g>
      <use xlink:href="#m93a3335621" x="1105.337" y="400.9022" style="fill: #ffa500; stroke: #ffa500"/>
     </g>
    </g>
    <g id="text_22">
     <!-- to (weak) -->
     <g transform="translate(1162.937 409.3022)scale(0.32 -0.32)">
      <defs>
       <path id="DejaVuSans-6f" d="M 1959 3097 
Q 1497 3097 1228 2736 
Q 959 2375 959 1747 
Q 959 1119 1226 758 
Q 1494 397 1959 397 
Q 2419 397 2687 759 
Q 2956 1122 2956 1747 
Q 2956 2369 2687 2733 
Q 2419 3097 1959 3097 
z
M 1959 3584 
Q 2709 3584 3137 3096 
Q 3566 2609 3566 1747 
Q 3566 888 3137 398 
Q 2709 -91 1959 -91 
Q 1206 -91 779 398 
Q 353 888 353 1747 
Q 353 2609 779 3096 
Q 1206 3584 1959 3584 
z
" transform="scale(0.015625)"/>
      </defs>
      <use xlink:href="#DejaVuSans-74"/>
      <use xlink:href="#DejaVuSans-6f" x="39.208984"/>
      <use xlink:href="#DejaVuSans-20" x="100.390625"/>
      <use xlink:href="#DejaVuSans-28" x="132.177734"/>
      <use xlink:href="#DejaVuSans-77" x="171.191406"/>
      <use xlink:href="#DejaVuSans-65" x="252.978516"/>
      <use xlink:href="#DejaVuSans-61" x="314.501953"/>
      <use xlink:href="#DejaVuSans-6b" x="375.78125"/>
      <use xlink:href="#DejaVuSans-29" x="433.691406"/>
     </g>
    </g>
    <g id="PathCollection_12">
     <g>
      <use xlink:href="#m90d9f01461" x="1105.337" y="447.8722" style="fill: #800080; stroke: #800080; stroke-width: 1.5"/>
     </g>
    </g>
    <g id="text_23">
     <!-- the (weak) -->
     <g transform="translate(1162.937 456.2722)scale(0.32 -0.32)">
      <use xlink:href="#DejaVuSans-74"/>
      <use xlink:href="#DejaVuSans-68" x="39.208984"/>
      <use xlink:href="#DejaVuSans-65" x="102.587891"/>
      <use xlink:href="#DejaVuSans-20" x="164.111328"/>
      <use xlink:href="#DejaVuSans-28" x="195.898438"/>
      <use xlink:href="#DejaVuSans-77" x="234.912109"/>
      <use xlink:href="#DejaVuSans-65" x="316.699219"/>
      <use xlink:href="#DejaVuSans-61" x="378.222656"/>
      <use xlink:href="#DejaVuSans-6b" x="439.501953"/>
      <use xlink:href="#DejaVuSans-29" x="497.412109"/>
     </g>
    </g>
   </g>
  </g>
 </g>
 <defs>
  <clipPath id="p8647900541">
   <rect x="189.36" y="168.3072" width="1174.032" height="1079.9712"/>
  </clipPath>
 </defs>
</svg>
